# xmcd
#
# Track frame offsets: 
#        150
#        17480
#        71775
#        95775
#        172140
#        188555
#        231660
#        242310
#        266005
#        288360
#        305700
#
# Disc length: 4341 seconds
#
# Revision: 0
# Processed by: cddbd v1.4PL0 Copyright (c) Steve Scherf et al.
# Submitted via: ExactAudioCopy v0.90b2
#
DISCID=9f10f30b
DTITLE=Marvin Gaye - In Concert
DYEAR=1996
DGENRE=
TTITLE0=I Heard It Through The Grapewine
TTITLE1=Sexual Healing
TTITLE2=Let's Get It On
TTITLE3=Medley
TTITLE4=Come Get To This
TTITLE5=Distant Lover
TTITLE6=God Is Love
TTITLE7=Inner City Blues
TTITLE8=Intermission/Percussion Interlude
TTITLE9=What's Going On
TTITLE10=Joy
EXTD=
EXTT0=
EXTT1=
EXTT2=
EXTT3=
EXTT4=
EXTT5=
EXTT6=
EXTT7=
EXTT8=
EXTT9=
EXTT10=
PLAYORDER=
